<mxfile host="65bd71144e">
    <diagram id="Mzd9Sg38_1wmf4wqPEfR" name="Page-1">
        <mxGraphModel dx="1161" dy="516" grid="1" gridSize="10" guides="1" tooltips="1" connect="1" arrows="1" fold="1" page="1" pageScale="1" pageWidth="850" pageHeight="1100" math="0" shadow="0">
            <root>
                <mxCell id="0"/>
                <mxCell id="1" parent="0"/>
                <mxCell id="2" value="" style="whiteSpace=wrap;html=1;aspect=fixed;" vertex="1" parent="1">
                    <mxGeometry x="30" y="20" width="470" height="470" as="geometry"/>
                </mxCell>
                <mxCell id="3" value="YouTube URL" style="rounded=1;whiteSpace=wrap;html=1;" vertex="1" parent="1">
                    <mxGeometry x="150" y="90" width="120" height="30" as="geometry"/>
                </mxCell>
                <mxCell id="4" value="Submit" style="rounded=1;whiteSpace=wrap;html=1;" vertex="1" parent="1">
                    <mxGeometry x="280" y="90" width="80" height="30" as="geometry"/>
                </mxCell>
                <mxCell id="6" value="Embeded &lt;br&gt;Youtube Video Search" style="rounded=1;whiteSpace=wrap;html=1;" vertex="1" parent="1">
                    <mxGeometry x="60" y="150" width="170" height="150" as="geometry"/>
                </mxCell>
                <mxCell id="8" value="Saved Video URLs" style="rounded=0;whiteSpace=wrap;html=1;" vertex="1" parent="1">
                    <mxGeometry x="80" y="350" width="380" height="110" as="geometry"/>
                </mxCell>
                <mxCell id="9" value="URL&lt;br&gt;Controls&lt;br&gt;add/delete" style="rounded=1;whiteSpace=wrap;html=1;" vertex="1" parent="1">
                    <mxGeometry x="340" y="360" width="110" height="90" as="geometry"/>
                </mxCell>
                <mxCell id="11" value="Login &lt;br&gt;Functionality" style="rounded=1;whiteSpace=wrap;html=1;" vertex="1" parent="1">
                    <mxGeometry x="590" y="20" width="200" height="250" as="geometry"/>
                </mxCell>
                <mxCell id="12" value="Stripe Function&lt;br&gt;Subscription based" style="rounded=1;whiteSpace=wrap;html=1;" vertex="1" parent="1">
                    <mxGeometry x="580" y="350" width="230" height="130" as="geometry"/>
                </mxCell>
                <mxCell id="13" value="Embedded Video&lt;br&gt;Player" style="rounded=1;whiteSpace=wrap;html=1;" vertex="1" parent="1">
                    <mxGeometry x="280" y="150" width="170" height="150" as="geometry"/>
                </mxCell>
            </root>
        </mxGraphModel>
    </diagram>
</mxfile>